<?xml version="1.0" standalone="no"?>
<!DOCTYPE svg PUBLIC "-//W3C//DTD SVG 20010904//EN"
 "http://www.w3.org/TR/2001/REC-SVG-20010904/DTD/svg10.dtd">
<svg version="1.0" xmlns="http://www.w3.org/2000/svg"
 width="200.000000pt" height="200.000000pt" viewBox="0 0 200.000000 200.000000"
 preserveAspectRatio="xMidYMid meet">
<metadata>
Created by potrace 1.14, written by Peter Selinger 2001-2017
</metadata>
<g transform="translate(0.000000,200.000000) scale(0.100000,-0.100000)"
fill="#000000" stroke="none">
<path d="M895 1803 c-174 -38 -328 -175 -385 -344 -27 -79 -33 -210 -12 -289
17 -69 75 -179 110 -214 l28 -26 53 54 52 53 -24 29 c-195 233 -24 594 282
596 305 3 479 -363 284 -596 l-24 -29 52 -53 53 -54 28 26 c33 33 92 143 108
204 19 70 21 166 6 240 -39 188 -190 346 -377 395 -50 14 -188 18 -234 8z"/>
<path d="M969 1473 l-34 -98 -93 -1 c-50 0 -92 -4 -93 -8 0 -8 40 -41 110 -89
l39 -27 -29 -87 c-16 -47 -28 -90 -27 -95 2 -5 38 16 80 47 42 30 79 55 83 55
3 0 40 -25 81 -56 42 -30 77 -54 80 -52 3 3 -33 125 -51 170 -5 13 12 31 74
76 45 33 76 61 69 64 -7 2 -52 3 -100 3 -100 -2 -89 -12 -129 123 -11 39 -22
72 -24 72 -1 0 -18 -44 -36 -97z"/>
<path d="M806 934 c-3 -9 -6 -23 -6 -33 0 -27 -58 -80 -101 -93 -22 -6 -39
-17 -40 -25 0 -7 -1 -26 -1 -43 0 -103 -2 -98 40 -93 84 11 166 64 218 143 25
39 53 128 47 148 -7 20 -149 17 -157 -4z"/>
<path d="M1049 938 c-5 -61 33 -149 87 -203 44 -43 122 -82 174 -87 l35 -3 3
77 3 76 -33 7 c-45 10 -76 32 -96 69 -17 33 -19 38 -21 61 -1 20 -150 22 -152
3z"/>
</g>
</svg>
